<svg version="1.1" id="Layer_1" xmlns="http://www.w3.org/2000/svg" xmlns:xlink="http://www.w3.org/1999/xlink" x="0px" y="0px"
	 width="100%" viewBox="0 0 608 608" enable-background="new 0 0 608 608" xml:space="preserve">
<path fill="#000000" opacity="1.000000" stroke="none" 
	d="
M415.961670,527.045776 
	C355.390503,556.112732 293.516998,559.939636 229.605103,540.118164 
	C230.969376,537.076599 233.293304,537.344238 235.055038,536.821533 
	C262.226959,528.760620 289.078125,519.833374 314.453003,507.021271 
	C345.413330,491.388947 371.056244,469.623871 387.208618,438.629608 
	C409.673157,395.523132 403.882416,354.023926 376.814423,314.803009 
	C368.777191,303.157257 359.857849,292.123993 351.552216,280.658325 
	C346.736877,274.010956 343.055878,266.710388 341.236694,258.626770 
	C339.453094,250.701416 341.546021,244.042725 348.395020,239.366745 
	C354.583252,235.141891 360.653961,230.777466 366.691650,226.336853 
	C376.321930,219.253967 386.580261,221.247330 396.495270,226.074463 
	C413.386230,234.297852 431.154938,236.083420 449.544403,233.794937 
	C450.369171,233.692291 451.218536,233.630600 452.001434,233.378815 
	C454.053162,232.718979 456.468262,232.235245 456.956757,229.742432 
	C457.399506,227.482864 455.508881,226.105591 454.006989,224.858505 
	C446.642456,218.743332 438.143402,214.430420 429.691254,210.129318 
	C418.628632,204.499847 409.483582,196.717346 401.914093,186.963379 
	C399.855652,184.310898 398.015228,181.512650 396.938141,178.343094 
	C389.790253,157.309204 373.836304,146.332840 353.197479,142.565582 
	C322.179718,136.903839 297.327515,147.678192 280.495026,175.293762 
	C270.571564,191.574265 262.670929,208.751877 259.962341,227.954865 
	C257.894440,242.615662 260.816528,256.349609 266.376587,269.825226 
	C270.746460,280.416260 275.861908,290.779877 277.665863,302.273376 
	C278.941132,310.398499 275.054810,315.714447 266.938477,316.347900 
	C251.772141,317.531586 236.692871,315.342407 221.572968,314.753662 
	C190.925507,313.560211 161.210098,315.996826 133.421936,331.085999 
	C112.768440,342.300995 90.313118,349.463318 67.670349,357.255249 
	C64.680061,351.779114 64.595261,345.856476 63.864132,340.275726 
	C58.332306,298.050385 62.792458,256.921997 78.555817,217.247162 
	C100.020103,163.223587 136.197830,121.874092 186.638443,93.057930 
	C215.812393,76.391167 247.284637,66.406769 280.626373,62.985638 
	C326.683350,58.259838 370.901550,65.463219 412.794464,85.575699 
	C462.909302,109.635468 500.423157,146.736191 525.879944,195.973221 
	C538.980347,221.311401 547.035156,248.309830 550.459900,276.697968 
	C556.213135,324.388611 549.022156,369.969757 528.173889,413.234497 
	C505.342743,460.614044 470.589661,496.852417 424.687378,522.444153 
	C421.924286,523.984619 419.100800,525.416687 415.961670,527.045776 
z"/>
</svg>